<svg width="1080" height="1080" viewBox="0 0 1080 1080" fill="none" xmlns="http://www.w3.org/2000/svg">
<path d="M524.222 610.361C391.852 610.361 284.562 594.142 284.562 574.164V729.979C284.562 881.245 391.852 1003.88 524.222 1003.88C656.568 1003.88 763.869 881.245 763.869 729.979V574.164C763.869 594.142 656.555 610.361 524.222 610.361Z" fill="#12669D"/>
<path d="M524.222 72C391.852 72 284.562 194.616 284.562 345.897V574.164C284.562 594.142 391.852 610.361 524.222 610.361C656.568 610.361 763.869 594.156 763.869 574.164V345.897C763.857 194.616 656.555 72 524.222 72Z" fill="#4FA2D9"/>
<path d="M732.709 454.736C732.806 461.074 731.798 467.371 729.742 473.259C727.687 479.147 724.627 484.508 720.739 489.03C716.851 493.551 712.215 497.142 707.099 499.594C701.984 502.045 696.493 503.308 690.946 503.308C685.4 503.308 679.908 502.045 674.793 499.594C669.678 497.142 665.042 493.551 661.154 489.03C657.266 484.508 654.206 479.147 652.15 473.259C650.095 467.371 649.087 461.074 649.184 454.736V348.354C649.184 335.696 653.584 323.556 661.416 314.605C669.248 305.654 679.87 300.625 690.946 300.625C702.023 300.625 712.645 305.654 720.477 314.605C728.309 323.556 732.709 335.696 732.709 348.354V454.736Z" fill="#6AB1E0"/>
</svg>
